<svg version="1.1" id="Layer_1" xmlns="http://www.w3.org/2000/svg" xmlns:xlink="http://www.w3.org/1999/xlink" x="0px" y="0px"
	 width="100%" viewBox="0 0 512 512" enable-background="new 0 0 512 512" xml:space="preserve">
<path fill="#8C288E" opacity="1.000000" stroke="none" 
	d="
M225.000000,0.999997 
	C246.020889,1.000000 267.041779,1.000000 288.423950,1.414696 
	C289.459869,2.207168 290.093170,2.781598 290.815369,2.933619 
	C304.559082,5.826588 318.566620,7.795365 332.016418,11.692029 
	C368.148926,22.160305 400.094543,40.608227 428.022736,65.688171 
	C446.354279,82.150177 462.297058,100.816414 474.688477,121.963943 
	C435.775970,121.982407 397.343414,121.976814 358.910889,122.004471 
	C327.134186,122.027336 295.357513,122.089470 263.388062,121.826477 
	C262.933624,120.557014 262.678253,119.593513 262.409363,118.633797 
	C258.772064,105.652412 250.124969,100.643074 237.095947,104.024216 
	C229.539566,105.985168 221.998596,108.006165 214.458618,110.029671 
	C186.228699,117.605690 158.002060,125.193871 129.369919,132.496368 
	C126.383080,131.810196 123.801643,131.061722 121.217758,131.053162 
	C94.986412,130.966202 68.754578,131.029922 42.523144,130.956009 
	C39.737556,130.948151 36.953682,130.332092 34.227394,129.658356 
	C42.044571,118.170380 48.838337,106.165855 57.791248,96.077454 
	C70.802910,81.415527 84.486328,67.075020 99.503197,54.537731 
	C117.782433,39.276741 138.673935,27.685875 161.010895,18.965208 
	C180.903320,11.198923 201.252579,5.308046 222.539764,2.910788 
	C223.420410,2.811614 224.182617,1.660840 225.000000,0.999997 
z"/>
<path fill="#000000" opacity="1.000000" stroke="none" 
	d="
M475.168457,121.954277 
	C462.297058,100.816414 446.354279,82.150177 428.022736,65.688171 
	C400.094543,40.608227 368.148926,22.160305 332.016418,11.692029 
	C318.566620,7.795365 304.559082,5.826588 290.815369,2.933619 
	C290.093170,2.781598 289.459869,2.207168 288.892578,1.414696 
	C363.593719,1.000000 438.187408,1.000000 513.000000,1.000000 
	C513.000000,75.354088 513.000000,149.708389 512.712769,224.770050 
	C511.895325,224.984177 511.365082,224.490906 510.896179,223.564331 
	C509.663452,215.740280 508.369385,208.349548 507.044830,200.550690 
	C504.953918,193.094284 502.893494,186.046005 500.891144,178.607086 
	C495.097351,158.206070 486.198975,139.591675 475.168457,121.954277 
z"/>
<path fill="#000000" opacity="1.000000" stroke="none" 
	d="
M513.000000,289.000000 
	C513.000000,363.593719 513.000000,438.187408 513.000000,513.000000 
	C438.645905,513.000000 364.291626,513.000000 289.514893,512.606445 
	C289.605988,511.853180 290.079010,511.268402 290.639038,511.167725 
	C298.592438,509.738251 306.621765,508.667175 314.507904,506.939545 
	C337.581970,501.884705 359.490692,493.658112 380.400177,481.887604 
	C384.488495,479.514160 388.273407,477.302551 392.358826,474.928711 
	C395.473694,472.860535 398.288086,470.954590 401.394684,468.896698 
	C403.474060,467.514038 405.261169,466.283325 407.346497,464.893616 
	C409.034058,463.589844 410.423401,462.444977 412.050964,461.168457 
	C413.203033,460.375610 414.116913,459.714478 415.320648,458.907532 
	C417.097992,457.546112 418.585510,456.330566 420.345734,454.952789 
	C421.765594,453.558105 422.912750,452.325592 424.332764,450.955139 
	C425.424927,450.248291 426.244141,449.679413 427.316589,448.972229 
	C428.065125,448.254913 428.560394,447.675873 429.334259,446.943542 
	C430.760315,445.559875 431.907806,444.329468 433.340332,442.939331 
	C435.121094,441.201141 436.616852,439.622681 438.397339,437.886841 
	C440.490234,435.835510 442.298401,433.941589 444.378143,431.904510 
	C445.471558,430.855377 446.293457,429.949371 447.371521,428.914886 
	C448.111969,428.206421 448.596252,427.626465 449.343964,426.851013 
	C451.109314,424.784790 452.611237,422.914093 454.390411,420.893036 
	C455.463104,419.528625 456.258575,418.314606 457.340851,416.944458 
	C458.770447,415.225220 459.913208,413.662079 461.342102,411.939453 
	C462.909180,410.125671 464.190155,408.471436 465.670471,406.529175 
	C467.191498,404.159637 468.513245,402.078125 469.997925,399.705383 
	C471.150543,397.956543 472.140259,396.499023 473.381744,394.882996 
	C474.109406,393.862885 474.585297,393.001251 475.289429,392.033630 
	C475.635956,391.632904 475.754272,391.338196 475.934265,390.797363 
	C476.030823,390.385773 476.065765,390.220306 476.379089,389.857056 
	C479.140930,385.119965 481.624420,380.580627 484.388214,375.838837 
	C488.129669,367.790802 491.590820,359.945190 495.344482,351.878418 
	C496.088440,350.432495 496.609650,349.228455 496.980377,347.979706 
	C500.040466,337.672150 503.072693,327.356262 506.414124,316.799622 
	C508.168091,307.876984 509.589111,299.191772 511.144379,290.530670 
	C511.252441,289.928772 512.358154,289.506042 513.000000,289.000000 
z"/>
<path fill="#000000" opacity="1.000000" stroke="none" 
	d="
M225.000000,513.000000 
	C150.406296,513.000000 75.812599,513.000000 1.000000,513.000000 
	C1.000000,438.645905 1.000000,364.291626 1.416559,289.398926 
	C2.221165,290.029419 2.746575,291.172150 2.974877,292.371460 
	C4.409089,299.905548 5.777177,307.452179 7.128955,315.385345 
	C10.116014,325.515228 13.141249,335.254425 16.125732,345.364014 
	C18.349033,350.835083 20.613087,355.935730 22.924076,361.412140 
	C25.276213,366.539734 27.581413,371.291595 29.947884,376.398926 
	C32.972126,381.855011 35.935097,386.955627 39.053406,392.365356 
	C42.121063,396.816284 45.033386,400.958038 47.980865,405.437683 
	C49.308216,407.533722 50.600410,409.291870 52.046978,411.337830 
	C53.429581,413.098236 54.657803,414.570862 56.045349,416.335327 
	C57.770042,418.436401 59.335419,420.245605 61.053383,422.339478 
	C62.210506,423.747925 63.215046,424.871704 64.294708,426.295288 
	C65.546707,427.748169 66.723595,428.901215 68.046616,430.328857 
	C69.108490,431.433197 70.024223,432.262970 71.091835,433.375305 
	C72.791283,435.120026 74.338860,436.582092 76.045624,438.330688 
	C77.785683,440.111786 79.366554,441.606323 81.095581,443.376770 
	C82.462471,444.786957 83.681229,445.921265 85.046143,447.325867 
	C86.131126,448.341675 87.069946,449.087158 88.258430,449.964783 
	C88.971062,450.415039 89.434029,450.733154 90.046188,451.324158 
	C91.109909,452.427979 92.024445,453.258881 93.099777,454.370422 
	C94.807983,455.786407 96.355392,456.921722 98.099548,458.316956 
	C99.844894,459.745270 101.393501,460.913696 103.145477,462.341248 
	C104.881432,463.432526 106.414017,464.264709 108.106110,465.377808 
	C109.809967,466.789551 111.354309,467.920349 113.109589,469.317017 
	C116.193024,471.418823 119.065514,473.254791 122.154831,475.353699 
	C126.249077,477.745361 130.126495,479.874084 134.237244,482.252258 
	C161.809235,497.293793 190.821335,506.955719 221.666382,511.067902 
	C222.842545,511.224731 223.891678,512.334351 225.000000,513.000000 
z"/>
<path fill="#000000" opacity="1.000000" stroke="none" 
	d="
M224.531342,0.999997 
	C224.182617,1.660840 223.420410,2.811614 222.539764,2.910788 
	C201.252579,5.308046 180.903320,11.198923 161.010895,18.965208 
	C138.673935,27.685875 117.782433,39.276741 99.503197,54.537731 
	C84.486328,67.075020 70.802910,81.415527 57.791248,96.077454 
	C48.838337,106.165855 42.044571,118.170380 34.063248,129.972305 
	C23.153130,148.595718 15.251352,167.714874 9.986628,188.342575 
	C7.603272,198.464600 5.400250,208.240662 3.122549,218.430115 
	C2.365246,220.562347 1.682624,222.281174 1.000000,224.000000 
	C1.000000,149.739456 1.000000,75.478920 1.000000,1.000000 
	C75.354088,1.000000 149.708389,1.000000 224.531342,0.999997 
z"/>
<path fill="#642D8F" opacity="1.000000" stroke="none" 
	d="
M7.167131,314.994690 
	C5.777177,307.452179 4.409089,299.905548 2.974877,292.371460 
	C2.746575,291.172150 2.221165,290.029419 1.416559,288.930267 
	C1.000000,284.310760 1.000000,279.621490 1.426389,274.455811 
	C6.808036,273.652924 11.762855,273.050964 16.718622,273.043030 
	C61.748116,272.970886 106.777779,273.002380 151.953278,273.368439 
	C153.766632,279.947968 155.264709,286.214386 157.144791,292.364014 
	C159.448227,299.898346 162.071411,307.334900 164.052399,314.851196 
	C111.421364,314.923950 59.294247,314.959320 7.167131,314.994690 
z"/>
<path fill="#272262" opacity="1.000000" stroke="none" 
	d="
M225.468658,513.000000 
	C223.891678,512.334351 222.842545,511.224731 221.666382,511.067902 
	C190.821335,506.955719 161.809235,497.293793 134.656281,482.216370 
	C137.473373,481.620911 140.104630,481.041351 142.736237,481.039673 
	C219.580917,480.991211 296.425629,480.991394 373.270294,481.044373 
	C375.546021,481.045929 377.821289,481.699768 380.096771,482.049469 
	C359.490692,493.658112 337.581970,501.884705 314.507904,506.939545 
	C306.621765,508.667175 298.592438,509.738251 290.639038,511.167725 
	C290.079010,511.268402 289.605988,511.853180 289.046265,512.606445 
	C267.979095,513.000000 246.958206,513.000000 225.468658,513.000000 
z"/>
<path fill="#642D8F" opacity="1.000000" stroke="none" 
	d="
M513.000000,288.535339 
	C512.358154,289.506042 511.252441,289.928772 511.144379,290.530670 
	C509.589111,299.191772 508.168091,307.876984 505.937866,316.790222 
	C458.701324,316.990723 412.241791,316.957367 365.924530,316.614716 
	C372.751373,309.613525 379.231293,302.699554 386.180573,296.294952 
	C392.569519,290.406769 395.641632,283.666656 394.323242,274.970337 
	C398.051178,274.625793 401.352295,274.048248 404.654663,274.041077 
	C436.303131,273.972351 467.951874,273.960876 499.600281,274.044464 
	C504.067657,274.056244 508.533478,274.666656 513.000000,275.000000 
	C513.000000,279.356903 513.000000,283.713806 513.000000,288.535339 
z"/>
<path fill="#732B90" opacity="1.000000" stroke="none" 
	d="
M510.834839,223.997650 
	C511.365082,224.490906 511.895325,224.984177 512.712769,225.238708 
	C513.000000,232.687576 513.000000,240.375168 512.531372,248.531372 
	C467.903778,249.000031 423.744812,248.970337 379.586243,249.088043 
	C377.381378,249.093918 375.179962,250.378830 372.668396,250.934296 
	C364.225891,242.566483 356.091888,234.332565 348.195068,225.782898 
	C350.791199,224.978119 353.149506,224.066025 355.509277,224.062286 
	C407.284363,223.979965 459.059631,223.998444 510.834839,223.997650 
z"/>
<path fill="#6B2C90" opacity="1.000000" stroke="none" 
	d="
M372.976929,251.068176 
	C375.179962,250.378830 377.381378,249.093918 379.586243,249.088043 
	C423.744812,248.970337 467.903778,249.000031 512.531372,249.000000 
	C513.000000,257.354218 513.000000,265.708466 513.000000,274.531342 
	C508.533478,274.666656 504.067657,274.056244 499.600281,274.044464 
	C467.951874,273.960876 436.303131,273.972351 404.654663,274.041077 
	C401.352295,274.048248 398.051178,274.625793 394.077881,274.732483 
	C391.531525,271.834625 389.910645,268.913696 387.729858,266.498322 
	C382.963074,261.218750 377.911926,256.195892 372.976929,251.068176 
z"/>
<path fill="#6B2C90" opacity="1.000000" stroke="none" 
	d="
M151.807388,273.003540 
	C106.777779,273.002380 61.748116,272.970886 16.718622,273.043030 
	C11.762855,273.050964 6.808036,273.652924 1.426389,273.989685 
	C1.000000,267.312347 1.000000,260.624725 1.468657,253.468536 
	C7.585750,253.000000 13.234192,253.005737 18.882618,252.999069 
	C61.410736,252.948944 103.938850,252.896378 146.648346,253.166687 
	C148.488953,259.993744 150.148163,266.498627 151.807388,273.003540 
z"/>
<path fill="#742B90" opacity="1.000000" stroke="none" 
	d="
M1.000000,224.460632 
	C1.682624,222.281174 2.365246,220.562347 3.517332,218.519104 
	C5.617435,218.460556 7.248074,218.958450 8.878712,218.958435 
	C51.720680,218.958328 94.562653,218.906693 137.604080,219.190247 
	C139.236282,225.343231 140.669037,231.169830 141.626740,236.997192 
	C103.388199,236.998627 65.624527,237.061523 27.861328,236.954376 
	C18.906721,236.928970 9.953732,236.333328 1.000000,236.000000 
	C1.000000,232.307098 1.000000,228.614182 1.000000,224.460632 
z"/>
<path fill="#702C90" opacity="1.000000" stroke="none" 
	d="
M1.000000,236.467606 
	C9.953732,236.333328 18.906721,236.928970 27.861328,236.954376 
	C65.624527,237.061523 103.388199,236.998627 141.864258,237.292786 
	C143.873520,242.673279 145.170242,247.758926 146.466965,252.844559 
	C103.938850,252.896378 61.410736,252.948944 18.882618,252.999069 
	C13.234192,253.005737 7.585750,253.000000 1.468657,253.000000 
	C1.000000,247.645065 1.000000,242.290146 1.000000,236.467606 
z"/>
<path fill="#FBF9FC" opacity="1.000000" stroke="none" 
	d="
M146.648346,253.166687 
	C145.170242,247.758926 143.873520,242.673279 142.339294,237.292038 
	C140.669037,231.169830 139.236282,225.343231 137.562180,218.792801 
	C134.576416,208.045044 131.832031,198.021118 129.098190,187.602219 
	C126.887978,178.720413 124.711929,170.221527 122.426201,161.752243 
	C121.399162,157.946808 119.868225,154.259491 119.072304,150.413773 
	C117.856812,144.540710 122.909531,136.525757 129.774185,132.777496 
	C158.002060,125.193871 186.228699,117.605690 214.458618,110.029671 
	C221.998596,108.006165 229.539566,105.985168 237.095947,104.024216 
	C250.124969,100.643074 258.772064,105.652412 262.409363,118.633797 
	C262.678253,119.593513 262.933624,120.557014 263.436249,122.223709 
	C265.419006,129.643936 267.487549,136.297440 268.773651,143.098892 
	C269.486237,146.867538 271.583984,148.114777 274.745392,148.956009 
	C294.626129,154.246292 314.460785,159.713303 334.379364,164.855865 
	C342.233582,166.883652 347.229523,171.431183 349.432861,179.604034 
	C348.208191,186.987717 346.963898,193.941193 345.441406,201.152466 
	C344.130127,205.208771 343.237152,209.052551 342.027191,212.793823 
	C340.633453,217.103348 340.755737,220.794556 344.996429,223.505249 
	C346.089508,224.203964 346.976349,225.225433 347.957916,226.098633 
	C356.091888,234.332565 364.225891,242.566483 372.668396,250.934296 
	C377.911926,256.195892 382.963074,261.218750 387.729858,266.498322 
	C389.910645,268.913696 391.531525,271.834625 393.651672,274.764160 
	C395.641632,283.666656 392.569519,290.406769 386.180573,296.294952 
	C379.231293,302.699554 372.751373,309.613525 365.625671,316.748657 
	C354.594543,327.853119 344.004608,338.514374 333.137512,349.371338 
	C324.505707,358.019806 316.151062,366.472534 307.495911,375.057678 
	C303.269379,379.183167 299.343414,383.176239 295.140137,387.361969 
	C292.842072,389.677795 290.821259,391.800995 288.512634,394.040833 
	C287.118896,395.372314 286.013031,396.587158 284.604675,397.928162 
	C282.836090,399.626617 281.369965,401.198914 279.598083,402.912720 
	C277.165466,404.972626 275.038635,406.891022 272.553253,408.913330 
	C266.229034,411.912811 260.277496,413.179321 254.186371,408.578186 
	C251.864807,406.425964 249.731140,404.558685 247.414795,402.397949 
	C242.903091,397.885284 238.574097,393.666046 234.089218,389.167542 
	C229.441544,384.535950 224.949753,380.183624 220.293610,375.526428 
	C215.208023,370.435944 210.286789,365.650299 205.207153,360.559296 
	C199.785782,355.137482 194.522797,350.021057 189.113892,344.596008 
	C184.371933,339.716248 179.588989,335.313751 175.251755,330.508972 
	C172.750092,327.737640 170.969772,324.315491 168.862167,321.188019 
	C167.429245,319.061676 165.991776,316.938385 164.556335,314.813751 
	C162.071411,307.334900 159.448227,299.898346 157.144791,292.364014 
	C155.264709,286.214386 153.766632,279.947968 151.953278,273.368439 
	C150.148163,266.498627 148.488953,259.993744 146.648346,253.166687 
M372.804413,263.352081 
	C361.181427,252.113571 349.558441,240.875076 337.815308,229.520401 
	C334.763306,241.131332 331.646698,252.988220 328.169800,265.478485 
	C325.206238,276.653381 322.242706,287.828247 319.000641,299.752106 
	C315.402618,312.957245 311.991272,326.217834 308.094452,339.334198 
	C306.903900,343.341431 304.379303,346.952362 301.860474,351.032410 
	C295.817627,355.899017 289.047302,355.598419 281.499023,353.339325 
	C249.622742,344.675751 217.746460,336.012207 186.356094,327.480713 
	C195.446808,337.146820 204.421005,346.689087 213.760361,356.830597 
	C216.336594,359.404663 218.906296,361.985260 221.490173,364.551636 
	C233.053024,376.036011 244.588608,387.548157 256.200439,398.982849 
	C261.005432,403.714630 265.852722,404.210297 270.254486,399.850525 
	C285.915924,384.338470 301.367645,368.614746 317.519989,352.706818 
	C323.938629,346.044708 330.264648,339.290222 336.796692,332.741241 
	C347.764191,321.745270 358.862823,310.880066 370.524902,299.694733 
	C374.618408,295.592743 378.815857,291.588165 382.777252,287.362366 
	C387.032043,282.823486 387.098206,278.187775 382.945770,273.689667 
	C379.815765,270.299103 376.369110,267.200836 372.804413,263.352081 
M285.018646,203.794617 
	C286.367432,208.846497 287.692871,213.904755 289.069427,218.949036 
	C292.713562,232.302780 296.379822,245.650497 300.005676,259.781830 
	C300.700562,262.520935 301.390137,265.261444 302.091309,267.998932 
	C305.357483,280.750916 300.336823,289.633148 287.656219,293.033752 
	C256.496643,301.389862 225.306412,309.631470 194.132553,317.934326 
	C192.869553,318.270721 191.647568,318.761200 189.310379,319.549591 
	C198.589447,322.062408 206.611694,324.218506 214.624832,326.407959 
	C237.883835,332.762970 261.138977,339.132111 284.395996,345.494354 
	C293.882874,348.089600 297.612061,345.979767 300.139771,336.607391 
	C301.438782,331.790771 302.767120,326.982056 304.059235,322.163605 
	C309.599182,301.504761 315.130646,280.843658 320.956787,259.526978 
	C325.946350,240.685623 330.935913,221.844284 336.299774,202.339249 
	C337.656921,197.382217 339.052216,192.435242 340.362549,187.465866 
	C342.479797,179.436279 340.008850,175.233856 331.941467,173.024368 
	C316.425751,168.774918 300.913696,164.511810 285.390320,160.290527 
	C281.363190,159.195404 277.299652,158.234070 272.521057,157.026352 
	C276.880829,172.957977 280.991852,187.980576 285.018646,203.794617 
M287.535370,245.988525 
	C285.447845,238.479980 283.360321,230.971451 281.254608,222.717422 
	C279.171173,215.144943 277.087708,207.572464 275.038391,199.218658 
	C273.446045,193.476730 271.853729,187.734818 270.225677,181.189514 
	C267.677856,171.729950 265.130035,162.270370 262.378357,152.020798 
	C259.760681,141.878265 257.203400,131.719650 254.507767,121.597885 
	C251.989838,112.143379 247.874115,109.869354 238.329880,112.412247 
	C221.295029,116.950844 204.261002,121.492546 187.221222,126.012520 
	C170.664932,130.404236 154.092972,134.737091 137.545547,139.161835 
	C129.508759,141.310852 126.800781,145.860519 129.082184,153.772217 
	C131.690125,163.181396 134.298065,172.590576 136.892151,182.818497 
	C138.515198,188.913956 140.138229,195.009430 141.904892,201.887527 
	C143.999374,209.591766 146.093842,217.296005 148.174118,225.754807 
	C150.197708,233.686005 152.221313,241.617203 154.592438,250.241608 
	C156.448563,256.828278 158.304672,263.414948 160.138412,270.762482 
	C162.854324,281.045227 165.558090,291.331177 168.289490,301.609802 
	C171.140244,312.337616 174.583221,314.313629 185.218246,311.480164 
	C218.185547,302.696625 251.152985,293.913574 284.132233,285.175110 
	C292.449707,282.971252 296.310425,277.938354 293.229736,267.812744 
	C291.361755,260.805420 289.493744,253.798096 287.535370,245.988525 
z"/>
<path fill="#83298F" opacity="1.000000" stroke="none" 
	d="
M349.413239,179.173813 
	C347.229523,171.431183 342.233582,166.883652 334.379364,164.855865 
	C314.460785,159.713303 294.626129,154.246292 274.745392,148.956009 
	C271.583984,148.114777 269.486237,146.867538 268.773651,143.098892 
	C267.487549,136.297440 265.419006,129.643936 263.629028,122.531425 
	C295.357513,122.089470 327.134186,122.027336 358.910889,122.004471 
	C397.343414,121.976814 435.775970,121.982407 474.688477,121.963943 
	C486.198975,139.591675 495.097351,158.206070 500.433441,178.607605 
	C481.477844,178.999176 463.038025,178.979904 444.598236,179.004379 
	C412.869904,179.046494 381.141571,179.115875 349.413239,179.173813 
z"/>
<path fill="#82298F" opacity="1.000000" stroke="none" 
	d="
M129.369919,132.496368 
	C122.909531,136.525757 117.856812,144.540710 119.072304,150.413773 
	C119.868225,154.259491 121.399162,157.946808 122.426201,161.752243 
	C124.711929,170.221527 126.887978,178.720413 128.623749,187.602814 
	C88.814819,187.997787 49.490891,187.997192 10.166962,187.996613 
	C15.251352,167.714874 23.153130,148.595718 34.004868,130.312164 
	C36.953682,130.332092 39.737556,130.948151 42.523144,130.956009 
	C68.754578,131.029922 94.986412,130.966202 121.217758,131.053162 
	C123.801643,131.061722 126.383080,131.810196 129.369919,132.496368 
z"/>
<path fill="#782A8F" opacity="1.000000" stroke="none" 
	d="
M348.195068,225.782898 
	C346.976349,225.225433 346.089508,224.203964 344.996429,223.505249 
	C340.755737,220.794556 340.633453,217.103348 342.027191,212.793823 
	C343.237152,209.052551 344.130127,205.208771 345.927826,201.174347 
	C400.153412,200.945221 453.614349,200.952026 507.075317,200.958832 
	C508.369385,208.349548 509.663452,215.740280 510.896179,223.564316 
	C459.059631,223.998444 407.284363,223.979965 355.509277,224.062286 
	C353.149506,224.066025 350.791199,224.978119 348.195068,225.782898 
z"/>
<path fill="#7C2A8F" opacity="1.000000" stroke="none" 
	d="
M507.044830,200.550690 
	C453.614349,200.952026 400.153412,200.945221 346.206024,200.916534 
	C346.963898,193.941193 348.208191,186.987717 349.432861,179.604034 
	C381.141571,179.115875 412.869904,179.046494 444.598236,179.004379 
	C463.038025,178.979904 481.477844,178.999176 500.375366,178.998245 
	C502.893494,186.046005 504.953918,193.094284 507.044830,200.550690 
z"/>
<path fill="#602C8C" opacity="1.000000" stroke="none" 
	d="
M333.414673,349.175598 
	C344.004608,338.514374 354.594543,327.853119 365.483368,317.057922 
	C412.241791,316.957367 458.701324,316.990723 505.637115,317.033478 
	C503.072693,327.356262 500.040466,337.672150 496.980377,347.979706 
	C496.609650,349.228455 496.088440,350.432495 494.998108,351.642700 
	C492.064758,351.418793 489.770386,351.028320 487.475769,351.026642 
	C438.776672,350.991425 390.077515,351.028595 341.378632,350.922211 
	C338.722687,350.916412 336.069244,349.783722 333.414673,349.175598 
z"/>
<path fill="#5A2B88" opacity="1.000000" stroke="none" 
	d="
M333.137482,349.371338 
	C336.069244,349.783722 338.722687,350.916412 341.378632,350.922211 
	C390.077515,351.028595 438.776672,350.991425 487.475769,351.026642 
	C489.770386,351.028320 492.064758,351.418793 494.705597,351.863892 
	C491.590820,359.945190 488.129669,367.790802 483.912231,375.829712 
	C427.829773,376.015320 372.503571,376.025055 317.177521,375.954132 
	C314.050049,375.950134 310.923462,375.283508 307.796448,374.925293 
	C316.151062,366.472534 324.505707,358.019806 333.137482,349.371338 
z"/>
<path fill="#4B297D" opacity="1.000000" stroke="none" 
	d="
M254.374237,408.863159 
	C260.277496,413.179321 266.229034,411.912811 272.894470,409.163147 
	C275.885040,409.539337 278.175720,409.969299 280.466675,409.970795 
	C337.859192,410.007996 395.251770,409.970490 452.644073,410.089264 
	C455.449432,410.095093 458.252075,411.399353 461.056000,412.098969 
	C459.913208,413.662079 458.770447,415.225220 456.994110,416.708527 
	C454.728180,416.419312 453.095825,416.026733 451.463409,416.026581 
	C319.604279,416.012543 187.745163,416.029144 55.886032,416.043457 
	C54.657803,414.570862 53.429581,413.098236 52.439034,411.173767 
	C55.144737,410.481262 57.612629,410.032043 60.080807,410.030487 
	C121.555565,409.991608 183.030380,410.017517 244.505096,409.951599 
	C247.795197,409.948090 251.084534,409.242096 254.374237,408.863159 
z"/>
<path fill="#552A84" opacity="1.000000" stroke="none" 
	d="
M307.495911,375.057678 
	C310.923462,375.283508 314.050049,375.950134 317.177521,375.954132 
	C372.503571,376.025055 427.829773,376.015320 483.631897,376.032104 
	C481.624420,380.580627 479.140930,385.119965 475.988159,389.691803 
	C472.856842,389.482849 470.394928,389.032501 467.932709,389.030701 
	C413.080933,388.990570 358.229095,389.025482 303.377502,388.922211 
	C300.723053,388.917206 298.070740,387.779541 295.417450,387.169342 
	C299.343414,383.176239 303.269379,379.183167 307.495911,375.057678 
z"/>
<path fill="#2D2366" opacity="1.000000" stroke="none" 
	d="
M380.400177,481.887604 
	C377.821289,481.699768 375.546021,481.045929 373.270294,481.044373 
	C296.425629,480.991394 219.580917,480.991211 142.736237,481.039673 
	C140.104630,481.041351 137.473373,481.620911 134.422943,481.966980 
	C130.126495,479.874084 126.249077,477.745361 122.467331,475.122009 
	C125.313789,474.085724 128.064102,473.073547 130.815414,473.070831 
	C215.218567,472.986908 299.621826,472.982849 384.024902,473.089661 
	C386.703552,473.093048 389.380554,474.394592 392.058319,475.090942 
	C388.273407,477.302551 384.488495,479.514160 380.400177,481.887604 
z"/>
<path fill="#49287B" opacity="1.000000" stroke="none" 
	d="
M56.045353,416.335327 
	C187.745163,416.029144 319.604279,416.012543 451.463409,416.026581 
	C453.095825,416.026733 454.728180,416.419312 456.707306,416.864655 
	C456.258575,418.314606 455.463104,419.528625 453.913635,420.883118 
	C324.685944,421.015808 196.212250,421.002625 67.738579,421.044220 
	C65.459206,421.044952 63.180050,421.703308 60.900795,422.054810 
	C59.335419,420.245605 57.770042,418.436401 56.045353,416.335327 
z"/>
<path fill="#472879" opacity="1.000000" stroke="none" 
	d="
M61.053379,422.339478 
	C63.180050,421.703308 65.459206,421.044952 67.738579,421.044220 
	C196.212250,421.002625 324.685944,421.015808 453.636414,421.033508 
	C452.611237,422.914093 451.109314,424.784790 448.954285,426.686035 
	C445.667603,426.477692 443.034058,426.030670 440.400391,426.029907 
	C315.006805,425.994141 189.613190,425.996979 64.219589,425.995453 
	C63.215046,424.871704 62.210506,423.747925 61.053379,422.339478 
z"/>
<path fill="#432777" opacity="1.000000" stroke="none" 
	d="
M75.886444,438.044189 
	C74.338860,436.582092 72.791283,435.120026 71.440186,433.141144 
	C74.102623,432.416260 76.568527,432.026703 79.034531,432.026062 
	C197.104889,431.996246 315.175262,431.999542 433.245636,432.001953 
	C436.865967,432.002045 440.486267,432.031769 444.106598,432.047668 
	C442.298401,433.941589 440.490234,435.835510 437.969543,437.845673 
	C433.958893,437.641296 430.660858,437.041870 427.362518,437.040405 
	C317.830719,436.991608 208.298859,436.979187 98.767059,437.044922 
	C91.139992,437.049500 83.513313,437.696136 75.886444,438.044189 
z"/>
<path fill="#402774" opacity="1.000000" stroke="none" 
	d="
M76.045631,438.330688 
	C83.513313,437.696136 91.139992,437.049500 98.767059,437.044922 
	C208.298859,436.979187 317.830719,436.991608 427.362518,437.040405 
	C430.660858,437.041870 433.958893,437.641296 437.684845,438.003052 
	C436.616852,439.622681 435.121094,441.201141 432.993103,442.703613 
	C430.727753,442.418579 429.094696,442.027008 427.461548,442.026611 
	C313.874420,441.997864 200.287308,441.995056 86.700203,442.046173 
	C84.782455,442.047028 82.865021,442.734009 80.947433,443.100861 
	C79.366554,441.606323 77.785683,440.111786 76.045631,438.330688 
z"/>
<path fill="#302469" opacity="1.000000" stroke="none" 
	d="
M392.358826,474.928711 
	C389.380554,474.394592 386.703552,473.093048 384.024902,473.089661 
	C299.621826,472.982849 215.218567,472.986908 130.815414,473.070831 
	C128.064102,473.073547 125.313789,474.085724 122.250504,474.859070 
	C119.065514,473.254791 116.193024,471.418823 113.501549,469.151917 
	C115.649300,468.480835 117.615944,468.031311 119.582756,468.030579 
	C211.144867,467.995941 302.707001,467.992828 394.269073,468.044220 
	C396.547058,468.045471 398.824677,468.699219 401.102448,469.048645 
	C398.288086,470.954590 395.473694,472.860535 392.358826,474.928711 
z"/>
<path fill="#3E2673" opacity="1.000000" stroke="none" 
	d="
M81.095581,443.376770 
	C82.865021,442.734009 84.782455,442.047028 86.700203,442.046173 
	C200.287308,441.995056 313.874420,441.997864 427.461548,442.026611 
	C429.094696,442.027008 430.727753,442.418579 432.708069,442.863342 
	C431.907806,444.329468 430.760315,445.559875 428.986755,446.708191 
	C426.561096,446.417480 424.761566,446.026672 422.961945,446.026215 
	C312.552338,445.997223 202.142761,445.993927 91.733185,446.044342 
	C89.455292,446.045380 87.177704,446.703796 84.899979,447.055542 
	C83.681229,445.921265 82.462471,444.786957 81.095581,443.376770 
z"/>
<path fill="#38256F" opacity="1.000000" stroke="none" 
	d="
M97.902809,458.057037 
	C96.355392,456.921722 94.807983,455.786407 93.448746,454.136719 
	C95.103310,453.415253 96.569656,453.027283 98.036095,453.026886 
	C203.077179,452.998749 308.118256,452.987946 413.159271,453.089813 
	C415.464508,453.092041 417.768463,454.410522 420.072998,455.114990 
	C418.585510,456.330566 417.097992,457.546112 415.037903,458.641571 
	C412.081726,458.014465 409.698517,457.065765 407.314575,457.063995 
	C306.453552,456.989960 205.592438,456.993439 104.731369,457.044495 
	C102.455017,457.045624 100.178993,457.704803 97.902809,458.057037 
z"/>
<path fill="#34256C" opacity="1.000000" stroke="none" 
	d="
M107.946594,465.096863 
	C106.414017,464.264709 104.881432,463.432526 103.475128,462.114136 
	C108.364235,461.085297 113.126579,460.074341 117.889984,460.069336 
	C207.579025,459.975098 297.268219,459.965942 386.957275,460.056580 
	C395.242828,460.064941 403.527618,460.866760 411.812744,461.300140 
	C410.423401,462.444977 409.034058,463.589844 406.961029,464.724121 
	C404.310547,464.475861 402.343842,464.030884 400.376984,464.030182 
	C304.817474,463.996155 209.257965,463.993988 113.698471,464.046021 
	C111.780991,464.047089 109.863884,464.731323 107.946594,465.096863 
z"/>
<path fill="#33246A" opacity="1.000000" stroke="none" 
	d="
M108.106110,465.377808 
	C109.863884,464.731323 111.780991,464.047089 113.698471,464.046021 
	C209.257965,463.993988 304.817474,463.996155 400.376984,464.030182 
	C402.343842,464.030884 404.310547,464.475861 406.662811,464.883087 
	C405.261169,466.283325 403.474060,467.514038 401.394684,468.896698 
	C398.824677,468.699219 396.547058,468.045471 394.269073,468.044220 
	C302.707001,467.992828 211.144867,467.995941 119.582756,468.030579 
	C117.615944,468.031311 115.649300,468.480835 113.290604,468.886047 
	C111.354309,467.920349 109.809967,466.789551 108.106110,465.377808 
z"/>
<path fill="#462879" opacity="1.000000" stroke="none" 
	d="
M64.294708,426.295288 
	C189.613190,425.996979 315.006805,425.994141 440.400391,426.029907 
	C443.034058,426.030670 445.667603,426.477692 448.690857,426.881531 
	C448.596252,427.626465 448.111969,428.206421 446.894531,428.904907 
	C322.353699,429.015747 198.546036,429.002319 74.738396,429.044159 
	C72.458969,429.044952 70.179779,429.702942 67.900482,430.054260 
	C66.723595,428.901215 65.546707,427.748169 64.294708,426.295288 
z"/>
<path fill="#452778" opacity="1.000000" stroke="none" 
	d="
M68.046616,430.328857 
	C70.179779,429.702942 72.458969,429.044952 74.738396,429.044159 
	C198.546036,429.002319 322.353699,429.015747 446.638336,429.033447 
	C446.293457,429.949371 445.471558,430.855377 444.378143,431.904510 
	C440.486267,432.031769 436.865967,432.002045 433.245636,432.001953 
	C315.175262,431.999542 197.104889,431.996246 79.034531,432.026062 
	C76.568527,432.026703 74.102623,432.416260 71.288315,432.858521 
	C70.024223,432.262970 69.108490,431.433197 68.046616,430.328857 
z"/>
<path fill="#4F2980" opacity="1.000000" stroke="none" 
	d="
M279.903870,402.771210 
	C281.369965,401.198914 282.836090,399.626617 284.945648,398.179077 
	C287.883270,398.535919 290.177246,398.968994 292.471588,398.970581 
	C347.458527,399.008392 402.445557,398.978607 457.432434,399.042999 
	C461.566986,399.047821 465.700836,399.664429 469.834991,399.996643 
	C468.513245,402.078125 467.191498,404.159637 465.339966,406.185486 
	C462.395905,405.753235 459.981964,405.050476 457.567230,405.047821 
	C400.911987,404.986115 344.256622,405.029144 287.601593,404.905487 
	C285.034149,404.899872 282.469696,403.514130 279.903870,402.771210 
z"/>
<path fill="#3A2670" opacity="1.000000" stroke="none" 
	d="
M420.345734,454.952789 
	C417.768463,454.410522 415.464508,453.092041 413.159271,453.089813 
	C308.118256,452.987946 203.077179,452.998749 98.036095,453.026886 
	C96.569656,453.027283 95.103310,453.415253 93.287949,453.856018 
	C92.024445,453.258881 91.109909,452.427979 90.438019,451.159363 
	C92.647934,450.481232 94.615128,450.031189 96.582466,450.030548 
	C203.822983,449.996643 311.063507,449.994720 418.304016,450.045837 
	C420.222809,450.046753 422.141296,450.728882 424.059875,451.093140 
	C422.912750,452.325592 421.765594,453.558105 420.345734,454.952789 
z"/>
<path fill="#36256D" opacity="1.000000" stroke="none" 
	d="
M412.050964,461.168457 
	C403.527618,460.866760 395.242828,460.064941 386.957275,460.056580 
	C297.268219,459.965942 207.579025,459.975098 117.889984,460.069336 
	C113.126579,460.074341 108.364235,461.085297 103.271759,461.855042 
	C101.393501,460.913696 99.844894,459.745270 98.099548,458.316956 
	C100.178993,457.704803 102.455017,457.045624 104.731369,457.044495 
	C205.592438,456.993439 306.453552,456.989960 407.314575,457.063995 
	C409.698517,457.065765 412.081726,458.014465 414.748047,458.787415 
	C414.116913,459.714478 413.203033,460.375610 412.050964,461.168457 
z"/>
<path fill="#4D297E" opacity="1.000000" stroke="none" 
	d="
M279.598083,402.912720 
	C282.469696,403.514130 285.034149,404.899872 287.601593,404.905487 
	C344.256622,405.029144 400.911987,404.986115 457.567230,405.047821 
	C459.981964,405.050476 462.395905,405.753235 465.140686,406.473511 
	C464.190155,408.471436 462.909180,410.125671 461.342102,411.939453 
	C458.252075,411.399353 455.449432,410.095093 452.644073,410.089264 
	C395.251770,409.970490 337.859192,410.007996 280.466675,409.970795 
	C278.175720,409.969299 275.885040,409.539337 273.253052,409.059204 
	C275.038635,406.891022 277.165466,404.972626 279.598083,402.912720 
z"/>
<path fill="#502980" opacity="1.000000" stroke="none" 
	d="
M469.997925,399.705383 
	C465.700836,399.664429 461.566986,399.047821 457.432434,399.042999 
	C402.445557,398.978607 347.458527,399.008392 292.471588,398.970581 
	C290.177246,398.968994 287.883270,398.535919 285.248108,398.052917 
	C286.013031,396.587158 287.118896,395.372314 288.993866,394.056885 
	C346.418335,393.970886 403.073730,393.962128 459.729034,394.044861 
	C464.196472,394.051392 468.663025,394.694305 473.130005,395.041504 
	C472.140259,396.499023 471.150543,397.956543 469.997925,399.705383 
z"/>
<path fill="#522A82" opacity="1.000000" stroke="none" 
	d="
M473.381714,394.882996 
	C468.663025,394.694305 464.196472,394.051392 459.729034,394.044861 
	C403.073730,393.962128 346.418335,393.970886 289.281677,393.940247 
	C290.821259,391.800995 292.842072,389.677795 295.140137,387.361969 
	C298.070740,387.779541 300.723053,388.917206 303.377502,388.922211 
	C358.229095,389.025482 413.080933,388.990570 467.932709,389.030701 
	C470.394928,389.032501 472.856842,389.482849 475.709808,389.889526 
	C476.065765,390.220306 476.030823,390.385773 475.772400,390.959290 
	C475.350220,391.601929 475.187683,391.859375 475.061218,392.139618 
	C474.585297,393.001251 474.109406,393.862885 473.381714,394.882996 
z"/>
<path fill="#3D2672" opacity="1.000000" stroke="none" 
	d="
M85.046143,447.325867 
	C87.177704,446.703796 89.455292,446.045380 91.733185,446.044342 
	C202.142761,445.993927 312.552338,445.997223 422.961945,446.026215 
	C424.761566,446.026672 426.561096,446.417480 428.708160,446.861511 
	C428.560394,447.675873 428.065125,448.254913 426.969482,448.734619 
	C424.070984,448.423492 421.772888,448.027679 419.474640,448.026672 
	C344.542328,447.994354 269.610016,447.999969 194.677719,448.000000 
	C161.207962,448.000000 127.738091,447.967346 94.268700,448.078705 
	C92.180138,448.085632 90.095329,449.221802 88.008774,449.832642 
	C87.069946,449.087158 86.131126,448.341675 85.046143,447.325867 
z"/>
<path fill="#3C2671" opacity="1.000000" stroke="none" 
	d="
M88.258438,449.964783 
	C90.095329,449.221802 92.180138,448.085632 94.268700,448.078705 
	C127.738091,447.967346 161.207962,448.000000 194.677719,448.000000 
	C269.610016,447.999969 344.542328,447.994354 419.474640,448.026672 
	C421.772888,448.027679 424.070984,448.423492 426.716248,448.872894 
	C426.244141,449.679413 425.424927,450.248291 424.332794,450.955139 
	C422.141296,450.728882 420.222809,450.046753 418.304016,450.045837 
	C311.063507,449.994720 203.822983,449.996643 96.582466,450.030548 
	C94.615128,450.031189 92.647934,450.481232 90.288834,450.886414 
	C89.434029,450.733154 88.971062,450.415039 88.258438,449.964783 
z"/>
<path fill="#552A84" opacity="1.000000" stroke="none" 
	d="
M475.289429,392.033630 
	C475.187683,391.859375 475.350220,391.601929 475.710724,391.205383 
	C475.754272,391.338196 475.635956,391.632904 475.289429,392.033630 
z"/>
<path fill="#612C8D" opacity="1.000000" stroke="none" 
	d="
M164.052399,314.851196 
	C165.991776,316.938385 167.429245,319.061676 168.862167,321.188019 
	C170.969772,324.315491 172.750092,327.737640 175.251755,330.508972 
	C179.588989,335.313751 184.371933,339.716248 188.628754,344.616058 
	C130.915192,344.960999 73.540840,344.977325 16.166485,344.993652 
	C13.141249,335.254425 10.116014,325.515228 7.128954,315.385345 
	C59.294247,314.959320 111.421364,314.923950 164.052399,314.851196 
z"/>
<path fill="#592B87" opacity="1.000000" stroke="none" 
	d="
M205.365570,360.864655 
	C210.286789,365.650299 215.208023,370.435944 219.855377,375.628296 
	C216.619370,376.356628 213.657501,376.955872 210.695038,376.958862 
	C155.393967,377.014862 100.092781,377.024323 44.791729,376.958405 
	C39.822998,376.952484 34.854969,376.362305 29.886612,376.043457 
	C27.581413,371.291595 25.276213,366.539734 23.401241,361.404114 
	C43.281826,361.013580 62.732189,361.016296 82.182541,360.998016 
	C123.243561,360.959381 164.304565,360.909790 205.365570,360.864655 
z"/>
<path fill="#5C2B8A" opacity="1.000000" stroke="none" 
	d="
M205.207153,360.559296 
	C164.304565,360.909790 123.243561,360.959381 82.182541,360.998016 
	C62.732189,361.016296 43.281826,361.013580 23.354305,361.028381 
	C20.613087,355.935730 18.349033,350.835083 16.125732,345.364014 
	C73.540840,344.977325 130.915192,344.960999 188.774689,344.924622 
	C194.522797,350.021057 199.785782,355.137482 205.207153,360.559296 
z"/>
<path fill="#552A84" opacity="1.000000" stroke="none" 
	d="
M29.947884,376.398926 
	C34.854969,376.362305 39.822998,376.952484 44.791729,376.958405 
	C100.092781,377.024323 155.393967,377.014862 210.695038,376.958862 
	C213.657501,376.955872 216.619370,376.356628 220.019745,375.933136 
	C224.949753,380.183624 229.441544,384.535950 233.765579,389.470215 
	C231.168335,390.368103 228.739075,390.957855 226.309326,390.959930 
	C166.612167,391.011139 106.914932,390.985870 47.217781,391.044800 
	C44.444214,391.047516 41.671291,391.704132 38.898067,392.056213 
	C35.935097,386.955627 32.972126,381.855011 29.947884,376.398926 
z"/>
<path fill="#502980" opacity="1.000000" stroke="none" 
	d="
M39.053406,392.365356 
	C41.671291,391.704132 44.444214,391.047516 47.217781,391.044800 
	C106.914932,390.985870 166.612167,391.011139 226.309326,390.959930 
	C228.739075,390.957855 231.168335,390.368103 233.921463,389.749512 
	C238.574097,393.666046 242.903091,397.885284 246.993988,402.584045 
	C243.971039,403.375702 241.186447,403.957916 238.401352,403.960297 
	C177.331467,404.012329 116.261520,403.987396 55.191658,404.046417 
	C52.776001,404.048737 50.361008,404.733215 47.945705,405.099823 
	C45.033386,400.958038 42.121063,396.816284 39.053406,392.365356 
z"/>
<path fill="#4D297E" opacity="1.000000" stroke="none" 
	d="
M47.980865,405.437683 
	C50.361008,404.733215 52.776001,404.048737 55.191658,404.046417 
	C116.261520,403.987396 177.331467,404.012329 238.401352,403.960297 
	C241.186447,403.957916 243.971039,403.375702 247.176666,402.877502 
	C249.731140,404.558685 251.864807,406.425964 254.186371,408.578186 
	C251.084534,409.242096 247.795197,409.948090 244.505096,409.951599 
	C183.030380,410.017517 121.555565,409.991608 60.080807,410.030487 
	C57.612629,410.032043 55.144737,410.481262 52.284657,410.885986 
	C50.600410,409.291870 49.308216,407.533722 47.980865,405.437683 
z"/>
<path fill="#792A8F" opacity="1.000000" stroke="none" 
	d="
M9.986628,188.342575 
	C49.490891,187.997192 88.814819,187.997787 128.613190,187.997772 
	C131.832031,198.021118 134.576416,208.045044 137.362717,218.466415 
	C94.562653,218.906693 51.720680,218.958328 8.878712,218.958435 
	C7.248074,218.958450 5.617435,218.460556 3.592012,218.105698 
	C5.400250,208.240662 7.603272,198.464600 9.986628,188.342575 
z"/>
<path fill="#642E8F" opacity="1.000000" stroke="none" 
	d="
M320.665222,260.183411 
	C315.130646,280.843658 309.599182,301.504761 304.059235,322.163605 
	C302.767120,326.982056 301.438782,331.790771 300.139771,336.607391 
	C297.612061,345.979767 293.882874,348.089600 284.395996,345.494354 
	C261.138977,339.132111 237.883835,332.762970 214.624832,326.407959 
	C206.611694,324.218506 198.589447,322.062408 189.310379,319.549591 
	C191.647568,318.761200 192.869553,318.270721 194.132553,317.934326 
	C225.306412,309.631470 256.496643,301.389862 287.656219,293.033752 
	C300.336823,289.633148 305.357483,280.750916 302.091309,267.998932 
	C301.390137,265.261444 300.700562,262.520935 300.487427,259.390900 
	C307.534515,259.394440 314.099854,259.788910 320.665222,260.183411 
z"/>
<path fill="#81298F" opacity="1.000000" stroke="none" 
	d="
M136.905991,181.999756 
	C134.298065,172.590576 131.690125,163.181396 129.559418,153.386398 
	C142.494400,153.000381 154.952209,153.017410 167.409943,152.996628 
	C199.134048,152.943710 230.858124,152.873871 262.582214,152.810806 
	C265.130035,162.270370 267.677856,171.729950 269.757080,181.592743 
	C225.161011,181.997223 181.033493,181.998489 136.905991,181.999756 
z"/>
<path fill="#662E90" opacity="1.000000" stroke="none" 
	d="
M293.245636,268.571320 
	C296.310425,277.938354 292.449707,282.971252 284.132233,285.175110 
	C251.152985,293.913574 218.185547,302.696625 185.218246,311.480164 
	C174.583221,314.313629 171.140244,312.337616 168.289490,301.609802 
	C165.558090,291.331177 162.854324,281.045227 160.607941,270.381836 
	C202.765381,270.000763 244.453323,270.023651 286.141052,269.938904 
	C288.510162,269.934113 290.877472,269.047516 293.245636,268.571320 
z"/>
<path fill="#862A8F" opacity="1.000000" stroke="none" 
	d="
M262.480286,152.415802 
	C230.858124,152.873871 199.134048,152.943710 167.409943,152.996628 
	C154.952209,153.017410 142.494400,153.000381 129.575317,153.000870 
	C126.800781,145.860519 129.508759,141.310852 137.545547,139.161835 
	C154.092972,134.737091 170.664932,130.404236 187.221222,126.012520 
	C204.261002,121.492546 221.295029,116.950844 238.329880,112.412247 
	C247.874115,109.869354 251.989838,112.143379 254.507767,121.597885 
	C257.203400,131.719650 259.760681,141.878265 262.480286,152.415802 
z"/>
<path fill="#782A8F" opacity="1.000000" stroke="none" 
	d="
M148.188309,225.000244 
	C146.093842,217.296005 143.999374,209.591766 142.233215,201.329315 
	C145.019394,200.514084 147.477036,200.035736 149.935181,200.033020 
	C191.624847,199.986984 233.314560,200.000015 275.004272,199.999985 
	C277.087708,207.572464 279.171173,215.144943 280.932190,223.389984 
	C278.346588,224.375015 276.083740,224.957016 273.820129,224.959976 
	C231.942917,225.014603 190.065598,225.000153 148.188309,225.000244 
z"/>
<path fill="#6C2C90" opacity="1.000000" stroke="none" 
	d="
M293.237671,268.192017 
	C290.877472,269.047516 288.510162,269.934113 286.141052,269.938904 
	C244.453323,270.023651 202.765381,270.000763 160.619141,270.001404 
	C158.304672,263.414948 156.448563,256.828278 154.764008,249.582886 
	C157.243286,248.282944 159.545288,247.111038 161.859573,247.086288 
	C177.329910,246.920944 192.802933,247.024139 208.274979,246.994675 
	C234.725266,246.944275 261.175476,246.860504 287.625732,246.790771 
	C289.493744,253.798096 291.361755,260.805420 293.237671,268.192017 
z"/>
<path fill="#722C90" opacity="1.000000" stroke="none" 
	d="
M287.580566,246.389648 
	C261.175476,246.860504 234.725266,246.944275 208.274979,246.994675 
	C192.802933,247.024139 177.329910,246.920944 161.859573,247.086288 
	C159.545288,247.111038 157.243286,248.282944 154.590240,249.236298 
	C152.221313,241.617203 150.197708,233.686005 148.181213,225.377533 
	C190.065598,225.000153 231.942917,225.014603 273.820129,224.959976 
	C276.083740,224.957016 278.346588,224.375015 280.941284,223.762726 
	C283.360321,230.971451 285.447845,238.479980 287.580566,246.389648 
z"/>
<path fill="#592C87" opacity="1.000000" stroke="none" 
	d="
M282.068726,353.819031 
	C289.047302,355.598419 295.817627,355.899017 302.576111,351.067322 
	C307.827423,351.725189 312.363098,352.348175 316.898804,352.971161 
	C301.367645,368.614746 285.915924,384.338470 270.254486,399.850525 
	C265.852722,404.210297 261.005432,403.714630 256.200439,398.982849 
	C244.588608,387.548157 233.053024,376.036011 221.490173,364.551636 
	C218.906296,361.985260 216.336594,359.404663 214.084442,356.485413 
	C233.627151,356.092529 252.847061,356.146942 272.063110,355.900452 
	C275.406647,355.857574 278.733948,354.545105 282.068726,353.819031 
z"/>
<path fill="#7D2A8F" opacity="1.000000" stroke="none" 
	d="
M275.021332,199.609314 
	C233.314560,200.000015 191.624847,199.986984 149.935181,200.033020 
	C147.477036,200.035736 145.019394,200.514084 142.161407,200.937988 
	C140.138229,195.009430 138.515198,188.913956 136.899078,182.409119 
	C181.033493,181.998489 225.161011,181.997223 269.774963,181.994431 
	C271.853729,187.734818 273.446045,193.476730 275.021332,199.609314 
z"/>
<path fill="#7F2B90" opacity="1.000000" stroke="none" 
	d="
M285.102844,203.003159 
	C280.991852,187.980576 276.880829,172.957977 272.521057,157.026352 
	C277.299652,158.234070 281.363190,159.195404 285.390320,160.290527 
	C300.913696,164.511810 316.425751,168.774918 331.941467,173.024368 
	C340.008850,175.233856 342.479797,179.436279 340.362549,187.465866 
	C339.052216,192.435242 337.656921,197.382217 335.648804,202.670227 
	C318.366180,203.001877 301.734528,203.002518 285.102844,203.003159 
z"/>
<path fill="#752C90" opacity="1.000000" stroke="none" 
	d="
M285.060730,203.398895 
	C301.734528,203.002518 318.366180,203.001877 335.461670,203.002075 
	C330.935913,221.844284 325.946350,240.685623 320.811005,259.855194 
	C314.099854,259.788910 307.534515,259.394440 300.503235,259.000305 
	C296.379822,245.650497 292.713562,232.302780 289.069427,218.949036 
	C287.692871,213.904755 286.367432,208.846497 285.060730,203.398895 
z"/>
<path fill="#672E90" opacity="1.000000" stroke="none" 
	d="
M319.279175,299.003143 
	C322.242706,287.828247 325.206238,276.653381 328.849213,265.192932 
	C342.271118,264.936584 355.013763,265.005676 367.755859,264.949066 
	C369.526459,264.941193 371.294281,264.313324 373.063385,263.972473 
	C376.369110,267.200836 379.815765,270.299103 382.945770,273.689667 
	C387.098206,278.187775 387.032043,282.823486 382.777252,287.362366 
	C378.815857,291.588165 374.618408,295.592743 369.836426,299.670715 
	C367.010345,299.431122 364.873413,299.036865 362.734985,299.028870 
	C348.249878,298.974701 333.764496,299.002106 319.279175,299.003143 
z"/>
<path fill="#622E8D" opacity="1.000000" stroke="none" 
	d="
M319.139893,299.377625 
	C333.764496,299.002106 348.249878,298.974701 362.734985,299.028870 
	C364.873413,299.036865 367.010345,299.431122 369.527161,299.803253 
	C358.862823,310.880066 347.764191,321.745270 336.796692,332.741241 
	C330.264648,339.290222 323.938629,346.044708 317.209412,352.838989 
	C312.363098,352.348175 307.827423,351.725189 302.878662,350.923492 
	C304.379303,346.952362 306.903900,343.341431 308.094452,339.334198 
	C311.991272,326.217834 315.402618,312.957245 319.139893,299.377625 
z"/>
<path fill="#612F8D" opacity="1.000000" stroke="none" 
	d="
M281.783875,353.579163 
	C278.733948,354.545105 275.406647,355.857574 272.063110,355.900452 
	C252.847061,356.146942 233.627151,356.092529 213.901886,356.185791 
	C204.421005,346.689087 195.446808,337.146820 186.356094,327.480713 
	C217.746460,336.012207 249.622742,344.675751 281.783875,353.579163 
z"/>
<path fill="#702D91" opacity="1.000000" stroke="none" 
	d="
M372.933899,263.662292 
	C371.294281,264.313324 369.526459,264.941193 367.755859,264.949066 
	C355.013763,265.005676 342.271118,264.936584 329.029358,264.876221 
	C331.646698,252.988220 334.763306,241.131332 337.815308,229.520401 
	C349.558441,240.875076 361.181427,252.113571 372.933899,263.662292 
z"/>
</svg>